<svg width="600" height="400" xmlns="http://www.w3.org/2000/svg">
<rect width="100%" height="100%" fill="white"/>
<text x="300.0" y="30" font-family="Arial" font-size="16" text-anchor="middle">Sorted - Search Time</text>
<line x1="80" y1="340" x2="520" y2="340" stroke="black" stroke-width="2"/>
<line x1="80" y1="60" x2="80" y2="340" stroke="black" stroke-width="2"/>
<text x="300.0" y="380" font-family="Arial" font-size="12" text-anchor="middle">n (number of keys)</text>
<text x="20" y="200.0" font-family="Arial" font-size="12" text-anchor="middle" transform="rotate(-90, 20, 200.0)">Time (s)</text>
<circle cx="80.0" cy="340.0" r="4" fill="#1f77b4"/>
<circle cx="275.55555555555554" cy="182.38553299289907" r="4" fill="#1f77b4"/>
<circle cx="520.0" cy="169.4925509800644" r="4" fill="#1f77b4"/>
<polyline points="80.0,340.0 275.55555555555554,182.38553299289907 520.0,169.4925509800644" fill="none" stroke="#1f77b4" stroke-width="2"/>
<rect x="530" y="60" width="10" height="10" fill="#1f77b4"/>
<text x="545" y="70" font-family="Arial" font-size="12">fixed</text>
<circle cx="80.0" cy="329.6913991978751" r="4" fill="#ff7f0e"/>
<circle cx="275.55555555555554" cy="149.66387995797922" r="4" fill="#ff7f0e"/>
<circle cx="520.0" cy="88.26767208957412" r="4" fill="#ff7f0e"/>
<polyline points="80.0,329.6913991978751 275.55555555555554,149.66387995797922 520.0,88.26767208957412" fill="none" stroke="#ff7f0e" stroke-width="2"/>
<rect x="530" y="80" width="10" height="10" fill="#ff7f0e"/>
<text x="545" y="90" font-family="Arial" font-size="12">universal</text>
</svg>